<svg width="156" height="33" viewBox="0 0 156 33" fill="none" xmlns="http://www.w3.org/2000/svg">
<path id="logo" fill-rule="evenodd" clip-rule="evenodd" d="M18.0412 5.49955L21.5501 0.185791L43.108 32.7976H36.0017L18.0412 5.49955ZM112.639 0.190393L121.247 0.185791L155.738 32.7976H147.135L112.639 0.190393ZM121.258 32.7974L131.203 23.3961H122.592L112.658 32.7974H121.258ZM145.802 9.59702L155.755 0.190004H147.142L137.19 9.59702H145.802ZM12.4333 13.9893H19.4811L7.10627 32.7977H0L12.4333 13.9893ZM100.867 32.7976L82.9061 5.49955L86.415 0.185791L107.973 32.7976H100.867ZM77.3002 13.9893H84.3481L71.9733 32.7977H64.867L77.3002 13.9893ZM57.1988 20.147L57.1864 0.185791H62.7731V19.8219C62.7778 21.8406 62.408 26.0197 59.4797 29.3061C57.3849 31.6567 54.0111 32.8504 51.6677 32.8133C50.6681 32.7976 49.1198 32.8057 49.1198 32.8057V27.7797H50.8934C55.747 27.4451 57.1854 23.3933 57.1988 20.147Z" fill="white"/>
</svg>
