<svg width="77" height="79" viewBox="0 0 77 79" fill="none" xmlns="http://www.w3.org/2000/svg">
<g clip-path="url(#clip0)">
<path fill-rule="evenodd" clip-rule="evenodd" d="M76.7059 9.74545C77.6478 40.8602 64.8231 63.9455 38.7533 79C12.6851 63.9455 -0.139574 40.8602 0.802389 9.74545C22.5703 -3.24695 54.9333 -3.25001 76.7059 9.74545Z" fill="white"/>
<path fill-rule="evenodd" clip-rule="evenodd" d="M38.7556 75.6121C62.8122 61.7195 74.6451 40.4176 73.7763 11.7063C53.6837 -0.286446 23.8212 -0.283385 3.7348 11.7063C2.86446 40.4176 14.6989 61.7195 38.7556 75.6121ZM38.7537 73.2776C61.2689 60.276 72.3467 40.3381 71.5324 13.4654C52.7274 2.24112 24.7768 2.24418 5.97652 13.4654C5.16223 40.3381 16.2385 60.276 38.7537 73.2776Z" fill="#181818"/>
<path d="M65.5787 20.6497L67.5358 15.7938L68.7643 16.3985L66.8072 21.2544L65.5787 20.6497ZM64.5558 20.1369L63.3243 19.5322L64.7847 15.9071L64.056 15.5489L64.5527 14.3181L67.2416 15.6408L66.7449 16.8716L66.0162 16.5133L64.5558 20.1369ZM61.4201 16.671L61.9261 16.8639L62.25 14.9044L61.4201 16.671ZM59.4116 17.8697L61.9744 13.2235L63.4052 13.7685L62.8338 19.1724L61.596 18.7025L61.7299 17.9248L60.9795 17.6385L60.651 18.3427L59.4116 17.8697ZM56.2043 16.7889L57.5308 11.6789L59.0161 12.1489C59.519 12.3081 59.8787 12.5744 60.0951 12.948C60.31 13.323 60.3551 13.7517 60.229 14.237C60.1512 14.5355 60.0204 14.7712 59.8367 14.9396C59.6514 15.1095 59.4132 15.2167 59.1205 15.2611L59.449 17.8146L58.0804 17.3813L58.0103 15.2198L57.4965 17.1976L56.2043 16.7889ZM58.5475 13.1485L58.2314 14.3656C58.4074 14.4161 58.5491 14.4069 58.6549 14.3349C58.7608 14.263 58.8402 14.1237 58.8931 13.9155C58.9461 13.7134 58.9476 13.5481 58.8963 13.4225C58.8464 13.297 58.7468 13.2113 58.5973 13.1638L58.5475 13.1485ZM52.877 13.9323L53.5201 10.592L54.8326 10.8997L54.1631 14.3793C54.1335 14.5309 54.1366 14.6488 54.1724 14.733C54.2082 14.8156 54.2783 14.8707 54.3811 14.8952C54.4854 14.9197 54.571 14.9014 54.6348 14.8416C54.6987 14.7804 54.7438 14.6733 54.7734 14.5217L55.4429 11.0421L56.7617 11.3513L56.1186 14.6916C55.9878 15.3698 55.7621 15.8367 55.4398 16.0893C55.1191 16.3434 54.6769 16.4031 54.1164 16.2715C53.5574 16.1398 53.1775 15.8872 52.9798 15.5122C52.7805 15.1386 52.7463 14.6105 52.877 13.9323ZM50.6085 15.4907L51.3606 10.2414L52.6886 10.4741L51.9351 15.7234L50.6085 15.4907ZM50.4497 12.2453L50.4482 12.2683C50.4373 12.4719 50.4279 12.6234 50.4186 12.7214C50.3314 13.643 50.1274 14.3104 49.8098 14.7222C49.4922 15.134 49.05 15.307 48.4817 15.2412C47.9119 15.1754 47.4915 14.8845 47.2253 14.3686C46.959 13.8542 46.8656 13.1592 46.9497 12.2882C47.0338 11.4049 47.2564 10.7435 47.6161 10.3042C47.9757 9.86483 48.449 9.67959 49.0313 9.74695C49.4471 9.79441 49.7725 9.93984 50.0091 10.1787C50.2458 10.4175 50.4093 10.765 50.498 11.2212L49.296 11.5258C49.2602 11.3375 49.2119 11.1967 49.1497 11.1079C49.0874 11.0191 49.0018 10.9686 48.8959 10.9563C48.7293 10.9364 48.6032 11.0267 48.516 11.2288C48.4304 11.4294 48.3603 11.8136 48.3058 12.3785C48.2529 12.9403 48.2482 13.3292 48.2949 13.5435C48.3416 13.7578 48.4459 13.8741 48.6094 13.8925C48.7308 13.9063 48.8289 13.8604 48.9006 13.7532C48.9722 13.646 49.0204 13.4761 49.0422 13.245L49.0485 13.1715L48.653 13.1256L48.7558 12.0509L50.4497 12.2453ZM43.3095 14.6289L43.4777 9.31678L44.8213 9.36883L44.6532 14.6809L43.3095 14.6289ZM40.5506 14.5462L40.6346 9.23105L41.9861 9.25708L41.9222 13.2526L42.9078 13.271L42.8876 14.5891L40.5506 14.5462ZM38.6059 14.4666V9.15145H39.9511V14.4666H38.6059ZM38.1201 11.3712V11.3942C38.1326 11.5978 38.1388 11.7493 38.1404 11.8488C38.1544 12.775 38.0283 13.4654 37.7574 13.917C37.488 14.3686 37.0676 14.5998 36.4962 14.612C35.9217 14.6227 35.4749 14.39 35.1526 13.9139C34.8318 13.4394 34.6637 12.7627 34.6497 11.8871C34.6357 10.9992 34.7836 10.3134 35.0919 9.82809C35.4001 9.3428 35.8485 9.09634 36.4355 9.08562C36.8528 9.07797 37.1922 9.17594 37.4538 9.38108C37.7153 9.58621 37.9146 9.90922 38.0548 10.3501L36.8948 10.814C36.8388 10.6303 36.7749 10.4986 36.7033 10.419C36.6317 10.3394 36.5414 10.3011 36.434 10.3027C36.2658 10.3057 36.1506 10.4129 36.0868 10.6241C36.0245 10.8354 35.9965 11.2242 36.0042 11.7937C36.0136 12.3586 36.0525 12.7444 36.1226 12.951C36.1926 13.1577 36.3078 13.2587 36.4744 13.2557C36.5974 13.2526 36.6877 13.1944 36.7485 13.0781C36.8092 12.9618 36.8357 12.7872 36.8325 12.5545L36.831 12.4811L36.4324 12.4887L36.4153 11.4079L38.1201 11.3712ZM32.9028 14.6733L32.6505 9.36577L33.9926 9.28769L34.2449 14.5967L32.9028 14.6733ZM28.5293 9.69796L29.8651 9.56937L30.6389 12.9817L30.8678 9.47293L32.2006 9.34434L31.5233 14.7452L30.0411 14.8891L28.5293 9.69796ZM23.1749 13.4838C23.0098 12.625 23.0347 11.9238 23.2527 11.3773C23.4707 10.8323 23.8584 10.494 24.4173 10.3639C24.9747 10.2338 25.4511 10.367 25.8482 10.7665C26.2452 11.1645 26.5254 11.7952 26.692 12.6571C26.8571 13.5159 26.8322 14.2171 26.6189 14.759C26.404 15.3009 26.0163 15.6377 25.4574 15.7678C24.8969 15.8995 24.4173 15.7663 24.0187 15.3667C23.6202 14.9687 23.3383 14.3395 23.1749 13.4838ZM24.4952 13.1363C24.5995 13.6767 24.7022 14.0395 24.805 14.2217C24.9062 14.4054 25.0401 14.4788 25.2005 14.4406C25.3608 14.4038 25.4527 14.2783 25.4792 14.0686C25.5041 13.8588 25.4652 13.4807 25.3593 12.9342C25.255 12.3877 25.1507 12.0233 25.0494 11.8412C24.9482 11.659 24.8175 11.587 24.6587 11.6238C24.4983 11.6621 24.4033 11.7876 24.3784 12.0019C24.3519 12.2162 24.3909 12.5943 24.4952 13.1363ZM20.3957 16.9328L19.3136 11.7539L20.7071 11.3987C21.3018 11.2472 21.7736 11.2809 22.1208 11.4998C22.468 11.7187 22.7047 12.132 22.8308 12.7413C22.9382 13.2572 22.8837 13.6981 22.6673 14.067C22.4493 14.4344 22.099 14.6809 21.6117 14.8064L21.3454 14.8738L21.7067 16.6006L20.3957 16.9328ZM20.855 12.5239L21.0948 13.6751C21.2956 13.6185 21.4326 13.5343 21.5074 13.421C21.5821 13.3062 21.6008 13.1531 21.5603 12.9587C21.5198 12.7673 21.4451 12.6342 21.3345 12.5576C21.224 12.4826 21.0808 12.4673 20.9064 12.5117L20.855 12.5239ZM16.8474 18.1805L15.4399 13.098L16.919 12.5989C17.4188 12.4305 17.8516 12.4367 18.2175 12.6204C18.5834 12.8056 18.8325 13.1378 18.9664 13.62C19.0489 13.917 19.0551 14.1926 18.9835 14.4467C18.9135 14.7008 18.764 14.9335 18.5413 15.1478L20.0765 17.092L18.7142 17.5528L17.59 15.7816L18.135 17.7487L16.8474 18.1805ZM17.0186 13.718L17.3534 14.9289C17.5262 14.8646 17.6399 14.7728 17.6928 14.6488C17.7457 14.5248 17.7442 14.3594 17.6866 14.1528C17.6305 13.9522 17.5511 13.8129 17.4468 13.7379C17.344 13.6629 17.2179 13.6506 17.0685 13.7012L17.0186 13.718ZM12.2933 17.4732C11.9959 16.6588 11.9102 15.9638 12.0395 15.3851C12.1687 14.8064 12.4972 14.3992 13.0266 14.1635C13.5544 13.9277 14.0448 13.9691 14.4995 14.2859C14.9525 14.6028 15.3278 15.1693 15.6267 15.9867C15.9241 16.8011 16.0097 17.4962 15.8836 18.0718C15.7575 18.6474 15.429 19.0515 14.8996 19.2888C14.3687 19.5261 13.8751 19.4863 13.4205 19.1694C12.9674 18.851 12.5906 18.2861 12.2933 17.4732ZM13.5404 16.8777C13.7288 17.3905 13.886 17.7273 14.0168 17.8881C14.146 18.0488 14.2877 18.0947 14.4403 18.0274C14.5913 17.96 14.663 17.8192 14.6552 17.6064C14.6474 17.3951 14.5477 17.0292 14.3593 16.5118C14.1694 15.9944 14.0106 15.6545 13.8829 15.4953C13.7537 15.3361 13.6151 15.2887 13.4641 15.3575C13.3115 15.4249 13.2383 15.5673 13.2477 15.7847C13.2539 16.0005 13.352 16.3649 13.5404 16.8777ZM12.9254 20.0052C12.8304 20.1231 12.7323 20.2272 12.6311 20.3129C12.5299 20.3987 12.4256 20.4706 12.3119 20.5288C12.0924 20.6421 11.862 20.7018 11.6207 20.7064C11.3778 20.711 11.1333 20.6635 10.8873 20.5625C10.5931 20.4385 10.3284 20.241 10.0948 19.9685C9.86128 19.696 9.65109 19.3408 9.46581 18.9015C9.15909 18.1743 9.0719 17.4977 9.20424 16.8731C9.33659 16.2485 9.65576 15.8061 10.1618 15.5458C10.2879 15.4815 10.4156 15.4295 10.5448 15.3897C10.674 15.3499 10.8079 15.3239 10.9403 15.307L11.4276 16.4628C11.3326 16.4552 11.2423 16.4598 11.1551 16.4735C11.0695 16.4889 10.9916 16.5133 10.9231 16.5501C10.6802 16.6756 10.5432 16.8823 10.5136 17.1731C10.4841 17.4625 10.5604 17.8284 10.7456 18.2646C10.92 18.678 11.1178 18.9658 11.3373 19.1265C11.5568 19.2873 11.781 19.3102 12.0068 19.1923C12.0909 19.1495 12.1656 19.0944 12.2341 19.027C12.301 18.9597 12.3618 18.8816 12.4131 18.7928L12.9254 20.0052Z" fill="#181818"/>
<path fill-rule="evenodd" clip-rule="evenodd" d="M26.8445 31.6042C24.4187 36.3789 27.6883 41.094 32.8388 42.4519C37.8662 43.7852 43.4137 43.5755 48.5298 42.8361V38.9707C48.5298 37.5332 47.9273 37.2653 46.5525 36.9683C45.1948 36.6744 43.7998 36.7065 42.4188 36.7065V36.2014H65.4135V36.7065C63.6744 36.754 62.4584 36.8474 61.7671 36.9882C60.4593 37.2684 59.8723 37.6741 59.8723 38.9722V42.8376C53.4047 43.9674 46.8203 44.442 40.2499 44.442C33.6749 44.442 13.4421 43.6674 13.4421 34.9522C13.4421 30.0136 20.7536 27.6745 24.9434 26.6013L26.8445 31.6042ZM59.8723 24.9863V31.5384H58.5738C57.0137 29.7457 54.6783 28.3848 51.5566 27.4525C46.4949 25.937 40.6407 25.5956 35.4046 26.511C35.2334 26.0472 35.0637 25.5833 34.8971 25.1195C40.3838 24.7796 45.746 25.0093 51.1627 25.8145C53.4498 26.1559 54.8091 26.3289 55.2248 26.3289C56.5451 26.3289 57.6988 25.963 58.5722 24.9863H59.8723Z" fill="#181818"/>
<path fill-rule="evenodd" clip-rule="evenodd" d="M31.1903 41.2276L26.3451 28.3975C24.9563 24.7204 24.0454 22.5527 23.583 21.9158C23.1128 21.2683 22.2316 20.8626 20.9377 20.6988V19.6456H37.5926V20.6988C36.4902 20.6988 34.9987 20.6115 34.1003 21.3173C33.314 21.9005 33.5149 22.9783 33.7313 23.7712L40.7423 42.757H40.7345C37.5646 42.708 34.1314 42.4676 31.1903 41.2276ZM44.834 44.9997L38.6716 61.0354L32.5324 44.7823C35.5343 45.0471 38.5563 45.0976 41.5691 45.0732H41.6033L42.1685 46.5887L42.7617 45.0563C43.453 45.0425 44.1443 45.0242 44.834 44.9997ZM47.5478 37.9409L45.7838 42.5304C45.0831 42.5978 44.3809 42.6575 43.6787 42.6957L45.7044 37.4694C46.1559 37.5398 46.8892 37.6561 47.5478 37.9409ZM51.3561 28.0622L48.4602 35.5635H46.4424L49.5127 27.5754C50.1697 27.7086 50.7723 27.8801 51.3561 28.0622ZM57.0717 19.6456V20.6988C55.862 20.9208 54.7706 21.6602 53.8301 22.9308C53.4752 23.4115 53.0314 24.2228 52.5052 25.3679C51.7734 25.2638 51.0416 25.1521 50.3099 25.0464C50.4266 24.5214 50.4796 24.059 50.4796 23.6641C50.4796 22.6001 49.972 21.6388 48.9351 21.181C48.2297 20.8519 47.2893 20.6973 46.131 20.6973V19.644H57.0717V19.6456Z" fill="#181818"/>
<path fill-rule="evenodd" clip-rule="evenodd" d="M69.8073 14.8172C70.578 40.2754 60.084 59.1647 38.7537 71.482C17.4233 59.1631 6.92935 40.2754 7.70004 14.8172C25.5132 4.1869 51.9925 4.18383 69.8073 14.8172ZM70.6698 14.1421C71.4623 40.3075 60.6772 59.7204 38.7537 72.3806C16.8316 59.7204 6.04655 40.3075 6.83904 14.1421C25.1442 3.2148 52.3599 3.21327 70.6698 14.1421Z" fill="#181818"/>
<path d="M34.2419 66.683V63.5509H33.8573V62.6002H35.3317V66.683H34.2419Z" fill="#181818"/>
<path d="M37.8597 63.9727C37.8597 63.7921 37.8394 63.6574 37.7974 63.5686C37.7554 63.4798 37.6931 63.4354 37.609 63.4354C37.5203 63.4354 37.4549 63.4783 37.4175 63.564C37.3786 63.6497 37.3599 63.7906 37.3599 63.9881C37.3599 64.1733 37.3786 64.308 37.4175 64.3937C37.4549 64.4795 37.5156 64.5223 37.5997 64.5223C37.6869 64.5223 37.7538 64.4764 37.7974 64.3845C37.8379 64.2958 37.8597 64.1565 37.8597 63.9727ZM37.6199 65.2571C37.5467 65.2908 37.4767 65.3168 37.4066 65.3337C37.3365 65.3521 37.268 65.3597 37.2011 65.3597C36.9239 65.3597 36.6966 65.2449 36.5223 65.0137C36.3463 64.7841 36.2576 64.4841 36.2576 64.1151C36.2576 63.6344 36.3775 63.2487 36.6172 62.9563C36.857 62.6654 37.1731 62.5184 37.5623 62.5184C37.9765 62.5184 38.3096 62.6593 38.565 62.9425C38.8203 63.2257 38.948 63.5977 38.948 64.0585C38.948 64.4381 38.8608 64.8469 38.6895 65.2878C38.5183 65.7286 38.2629 66.1925 37.9251 66.6808H36.6842C36.8819 66.4466 37.0563 66.2109 37.212 65.9751C37.3661 65.7409 37.5031 65.5005 37.6199 65.2571Z" fill="#181818"/>
<path d="M39.031 66.6829C39.5993 65.8792 40.0088 65.2454 40.2595 64.7815C40.5086 64.3177 40.6331 63.961 40.6331 63.7099C40.6331 63.5967 40.6113 63.5109 40.5662 63.4528C40.521 63.3946 40.4541 63.3655 40.3653 63.3655C40.2688 63.3655 40.2003 63.4145 40.1614 63.514C40.1224 63.6135 40.1006 63.8079 40.0975 64.0988H39.1244C39.1244 64.0819 39.1229 64.0574 39.1213 64.0207C39.1198 63.987 39.1182 63.961 39.1182 63.9442C39.1182 63.4788 39.2303 63.1251 39.4545 62.8817C39.6787 62.6383 40.0057 62.5174 40.4369 62.5174C40.8433 62.5174 41.164 62.6184 41.4007 62.822C41.6389 63.0256 41.7573 63.3027 41.7573 63.6518C41.7573 63.9212 41.6856 64.2182 41.5455 64.5381C41.4038 64.8596 41.1672 65.25 40.8371 65.7123H41.6747V66.6798H39.031V66.6829Z" fill="#181818"/>
<path d="M42.0563 65.5441C42.1949 65.6252 42.3288 65.6864 42.4549 65.7278C42.5826 65.7691 42.7056 65.7905 42.8255 65.7905C43.0092 65.7905 43.1602 65.7477 43.2786 65.6619C43.3953 65.5762 43.4545 65.4675 43.4545 65.3374C43.4545 65.1644 43.3891 65.0312 43.2583 64.9378C43.1275 64.846 42.9407 64.7985 42.6994 64.7985C42.6122 64.7985 42.5172 64.8077 42.4144 64.8261C42.3132 64.8445 42.2011 64.8735 42.0797 64.9133L42.4347 62.6002H44.5086V63.4988H43.2163L43.1166 64.0821C43.1805 64.0683 43.2427 64.0591 43.3019 64.053C43.3595 64.0469 43.4171 64.0438 43.4716 64.0438C43.825 64.0438 44.1178 64.1617 44.3544 64.3974C44.5895 64.6332 44.7063 64.9287 44.7063 65.2838C44.7063 65.7201 44.5521 66.0753 44.2454 66.3508C43.9387 66.6264 43.537 66.7626 43.0403 66.7626C42.8504 66.7626 42.6604 66.7412 42.4689 66.6968C42.279 66.6524 42.0844 66.5866 41.8882 66.4978L42.0563 65.5441Z" fill="#181818"/>
</g>
<defs>
<clipPath id="clip0">
<rect width="76" height="79" fill="white" transform="translate(0.754639)"/>
</clipPath>
</defs>
</svg>
